<?xml version="1.0" encoding="UTF-8"?>
<svg width="88px" height="90px" viewBox="0 0 88 90" version="1.1" xmlns="http://www.w3.org/2000/svg" xmlns:xlink="http://www.w3.org/1999/xlink">
    <!-- Generator: Sketch 43.2 (39069) - http://www.bohemiancoding.com/sketch -->
    <title>tennisR</title>
    <desc>Created with Sketch.</desc>
    <defs></defs>
    <g id="Page-1" stroke="none" stroke-width="1" fill="none" fill-rule="evenodd">
        <g id="tennisR" fill-rule="nonzero" fill="#FFFFFF">
            <path d="M53.846,55.275 C51.977,56.06 49.967,56.463 47.946,56.463 C46.966,56.463 45.983,56.368 45.012,56.177 C44.199,56.017 43.41,56.545 43.25,57.359 C43.09,58.172 43.617,58.961 44.432,59.121 C45.594,59.35 46.772,59.464 47.946,59.464 C50.366,59.464 52.768,58.984 55.009,58.042 C55.773,57.722 56.132,56.842 55.812,56.078 C55.492,55.314 54.609,54.954 53.846,55.275 Z" id="Shape"></path>
            <g id="Group">
                <path d="M71.637,29.846 L74.953,26.29 C75.424,25.785 75.396,24.994 74.89,24.523 C74.386,24.052 73.595,24.08 73.124,24.585 L69.808,28.142 L65.054,23.708 L69.658,18.771 C70.129,18.266 70.101,17.475 69.595,17.004 C69.091,16.533 68.3,16.561 67.829,17.066 L63.225,22.003 L58.471,17.57 L61.787,14.014 C62.258,13.509 62.23,12.718 61.724,12.247 C61.22,11.776 60.429,11.804 59.958,12.309 L56.642,15.865 L53.167,12.626 C52.663,12.155 51.872,12.183 51.401,12.688 C50.928,13.193 50.958,13.984 51.462,14.455 L54.937,17.694 L50.503,22.448 L45.565,17.844 C45.061,17.373 44.27,17.401 43.799,17.906 C43.326,18.411 43.356,19.202 43.86,19.673 L48.798,24.277 L44.364,29.03 L40.891,25.791 C40.387,25.32 39.596,25.348 39.125,25.853 C38.654,26.358 38.682,27.149 39.186,27.62 L42.661,30.859 L39.345,34.415 C38.874,34.92 38.902,35.711 39.406,36.182 C39.912,36.653 40.703,36.625 41.174,36.12 L44.488,32.564 L49.244,36.998 L44.64,41.935 C44.167,42.44 44.197,43.231 44.701,43.702 C45.207,44.173 45.998,44.145 46.469,43.64 L51.073,38.703 L55.825,43.136 L52.512,46.691 C52.039,47.196 52.069,47.987 52.573,48.458 C53.079,48.929 53.87,48.901 54.341,48.396 L57.655,44.841 L61.128,48.08 C61.634,48.551 62.425,48.523 62.896,48.018 C63.365,47.513 63.339,46.722 62.833,46.251 L59.36,43.012 L63.794,38.257 L68.73,42.861 C69.236,43.332 70.027,43.304 70.498,42.799 C70.969,42.294 70.941,41.503 70.435,41.032 L65.5,36.428 L69.932,31.675 L73.407,34.914 C73.911,35.385 74.702,35.357 75.173,34.852 C75.644,34.347 75.616,33.556 75.112,33.085 L71.637,29.846 Z M56.768,19.398 L61.522,23.831 L57.088,28.585 L52.334,24.152 L56.768,19.398 Z M46.197,30.734 L50.629,25.98 L55.383,30.413 L50.949,35.167 L46.197,30.734 Z M57.533,41.306 L52.779,36.872 L57.211,32.118 L61.965,36.552 L57.533,41.306 Z M63.67,34.723 L58.916,30.29 L63.35,25.536 L68.104,29.97 L63.67,34.723 Z" id="Shape"></path>
                <path d="M85.117,15.876 C83.769,12.5 81.724,9.421 78.982,6.865 C74.037,2.249 67.576,0.045 60.85,0.05 C51.053,0.058 40.614,4.638 32.61,13.212 C25.214,21.149 21.378,30.927 21.372,40.081 C21.372,43.173 21.821,46.192 22.722,49.04 C22.716,49.062 22.704,49.082 22.699,49.104 L19.16,62.509 C18.111,62.517 17.047,62.942 16.271,63.775 L1.949,79.132 L1.949,79.131 C1.23,79.9 0.873,80.893 0.877,81.86 C0.873,82.922 1.303,84.002 2.147,84.787 L6.534,88.879 C7.302,89.596 8.294,89.952 9.263,89.951 C10.324,89.953 11.402,89.524 12.189,88.681 L12.189,88.681 L26.51,73.322 C27.225,72.553 27.582,71.563 27.58,70.594 C27.582,70.508 27.56,70.422 27.555,70.336 L40.414,65.829 C42.748,66.432 45.178,66.733 47.646,66.731 C57.441,66.723 67.882,62.144 75.886,53.569 C83.281,45.631 87.116,35.854 87.122,26.7 C87.123,22.926 86.467,19.253 85.117,15.876 Z M9.264,85.949 L9.262,85.95 L9.258,85.949 L4.877,81.862 L4.877,81.859 L4.877,81.858 L19.193,66.504 L19.197,66.504 L19.197,66.503 L23.58,70.59 L23.58,70.594 L23.582,70.594 L9.264,85.949 Z M25.428,66.844 L22.799,64.393 L25.332,54.793 C26.477,56.656 27.865,58.382 29.512,59.917 C31.098,61.396 32.85,62.601 34.705,63.592 L25.428,66.844 Z M72.961,50.842 C65.668,58.672 56.184,62.74 47.647,62.733 C41.768,62.728 36.376,60.843 32.241,56.992 C29.946,54.85 28.239,52.287 27.093,49.423 C25.948,46.56 25.372,43.395 25.372,40.082 C25.366,32.052 28.784,23.175 35.534,15.941 C42.828,8.11 52.311,4.042 60.85,4.05 C66.727,4.056 72.12,5.94 76.256,9.791 C78.551,11.933 80.258,14.496 81.404,17.36 C82.547,20.222 83.125,23.388 83.123,26.701 C83.129,34.73 79.713,43.607 72.961,50.842 Z" id="Shape"></path>
            </g>
        </g>
    </g>
</svg>